<?xml version="1.0" encoding="UTF-8" standalone="no"?>
<!-- Created with Inkscape (http://www.inkscape.org/) -->

<svg
   xmlns:dc="http://purl.org/dc/elements/1.1/"
   xmlns:cc="http://creativecommons.org/ns#"
   xmlns:rdf="http://www.w3.org/1999/02/22-rdf-syntax-ns#"
   xmlns:svg="http://www.w3.org/2000/svg"
   xmlns="http://www.w3.org/2000/svg"
   xmlns:sodipodi="http://sodipodi.sourceforge.net/DTD/sodipodi-0.dtd"
   xmlns:inkscape="http://www.inkscape.org/namespaces/inkscape"
   width="39"
   height="50"
   id="svg3336"
   version="1.1"
   inkscape:version="0.91 r13725"
   viewBox="0 0 39 50"
   sodipodi:docname="life.svg">
  <defs
     id="defs3338" />
  <sodipodi:namedview
     id="base"
     pagecolor="#ffffff"
     bordercolor="#666666"
     borderopacity="1.0"
     inkscape:pageopacity="0.0"
     inkscape:pageshadow="2"
     inkscape:zoom="3.8890873"
     inkscape:cx="-15.419328"
     inkscape:cy="-1.7591411"
     inkscape:current-layer="layer2"
     showgrid="true"
     inkscape:document-units="px"
     inkscape:grid-bbox="true"
     inkscape:window-width="1920"
     inkscape:window-height="1017"
     inkscape:window-x="-8"
     inkscape:window-y="-8"
     inkscape:window-maximized="1" />
  <metadata
     id="metadata3341">
    <rdf:RDF>
      <cc:Work
         rdf:about="">
        <dc:format>image/svg+xml</dc:format>
        <dc:type
           rdf:resource="http://purl.org/dc/dcmitype/StillImage" />
        <dc:title></dc:title>
      </cc:Work>
    </rdf:RDF>
  </metadata>
  <g
     inkscape:groupmode="layer"
     id="layer2"
     inkscape:label="Layer 2"
     transform="translate(0,-14)">
    <g
       style="display:inline;opacity:1"
       id="Layer_1"
       transform="matrix(0.21982135,0,0,0.21982135,-91.619692,-54.786779)">
      <path
         style="fill:#da1c5c;stroke:#ffffff;stroke-width:7;stroke-miterlimit:10"
         inkscape:connector-curvature="0"
         class="st0"
         d="m 423,403.5 c 0,-45.6 36.9,-82.5 82.5,-82.5 45.6,0 82.5,36.9 82.5,82.5 0,45.6 -36.9,128.8 -82.5,128.8 C 460,532.3 423,449 423,403.5 Z"
         id="path3349" />
      <path
         style="fill:none;stroke:#ffffff;stroke-width:9;stroke-miterlimit:10"
         inkscape:connector-curvature="0"
         class="st1"
         d="m 505.5,369 c -14.3,0 -15.4,11.7 -15.4,17.3 0.1,5.7 1.1,11.2 5,15.5 1.8,2 2.6,2.3 2.2,5.6 -0.2,1.5 -0.4,2.8 -1.5,3.9 -2,2.1 -5.6,2.6 -8.2,3.7 -6.9,2.8 -10.9,8.7 -12.6,15.6 -0.7,2.8 -1.2,5.6 -1.7,8.3"
         id="path3351" />
      <path
         style="fill:none;stroke:#ffffff;stroke-width:9;stroke-miterlimit:10"
         inkscape:connector-curvature="0"
         class="st1"
         d="m 505,369 c 14.2,0 15.4,11.7 15.4,17.3 -0.1,5.7 -1.1,11.1 -5,15.5 -1.8,2 -2.6,2.3 -2.2,5.6 0.2,1.5 0.4,2.8 1.5,3.9 2,2.1 5.6,2.6 8.2,3.7 6.9,2.8 10.9,8.7 12.6,15.6 0.7,2.8 1.2,5.6 1.7,8.3"
         id="path3353" />
      <path
         style="fill:none;stroke:#ffffff;stroke-width:8;stroke-miterlimit:10"
         inkscape:connector-curvature="0"
         class="st2"
         d="m 469.6,375.6 c -11.5,0 -12.5,9.5 -12.4,14 0.1,4.6 0.9,9 4,12.5 1.4,1.6 2.1,1.8 1.8,4.6 -0.1,1.3 -0.3,2.2 -1.2,3.1 -1.6,1.7 -4.5,2.1 -6.7,3 -5.6,2.3 -8.8,7.1 -10.2,12.6 -0.6,2.2 -1,4.5 -1.4,6.7"
         id="path3355" />
      <path
         style="fill:none;stroke:#ffffff;stroke-width:8;stroke-miterlimit:10"
         inkscape:connector-curvature="0"
         class="st2"
         d="m 469.1,375.6 c 11.5,0 12.5,9.4 12.4,14 -0.1,4.6 -0.9,9 -4,12.5 -1.4,1.6 -2.1,1.8 -1.8,4.6 0.1,1.3 0.3,2.2 1.2,3.1 1.6,1.7 4.5,2.1 6.7,3 1.4,0.6 2.7,1.3 3.8,2.1"
         id="path3357" />
      <path
         style="fill:none;stroke:#ffffff;stroke-width:8;stroke-miterlimit:10"
         inkscape:connector-curvature="0"
         class="st2"
         d="m 540.9,375.6 c 11.5,0 12.5,9.5 12.4,14 -0.1,4.6 -0.9,9 -4,12.5 -1.4,1.6 -2.1,1.8 -1.8,4.6 0.1,1.3 0.3,2.2 1.2,3.1 1.6,1.7 4.5,2.1 6.7,3 5.6,2.3 8.8,7.1 10.2,12.6 0.6,2.2 1,4.5 1.4,6.7"
         id="path3359" />
      <path
         style="fill:none;stroke:#ffffff;stroke-width:8;stroke-miterlimit:10"
         inkscape:connector-curvature="0"
         class="st2"
         d="m 541.4,375.6 c -11.5,0 -12.5,9.4 -12.4,14 0.1,4.6 0.9,9 4,12.5 1.4,1.6 2.1,1.8 1.8,4.6 -0.1,1.3 -0.3,2.2 -1.2,3.1 -1.6,1.7 -4.5,2.1 -6.7,3 -1.4,0.6 -2.7,1.3 -3.8,2.1"
         id="path3361" />
    </g>
  </g>
  <style
     id="style3346"
     type="text/css">
	.st0{fill:#DA1C5C;stroke:#FFFFFF;stroke-width:7;stroke-miterlimit:10;}
	.st1{fill:none;stroke:#FFFFFF;stroke-width:9;stroke-miterlimit:10;}
	.st2{fill:none;stroke:#FFFFFF;stroke-width:8;stroke-miterlimit:10;}
	.st3{fill:#662D91;stroke:#FFFFFF;stroke-width:7;stroke-miterlimit:10;}
	.st4{fill:none;stroke:#FFFFFF;stroke-width:10;stroke-miterlimit:10;}
	.st5{fill:#EF4136;stroke:#FFFFFF;stroke-width:7;stroke-miterlimit:10;}
	.st6{fill:#726658;stroke:#FFFFFF;stroke-width:7;stroke-miterlimit:10;}
	.st7{fill:#FFFFFF;stroke:#FFFFFF;stroke-width:8;stroke-miterlimit:10;}
	.st8{fill:#FFFFFF;stroke:#FFFFFF;stroke-width:3;stroke-miterlimit:10;}
	.st9{fill:#FFFFFF;stroke:#FFFFFF;stroke-width:0.25;stroke-miterlimit:10;}
	.st10{fill:#1C75BC;stroke:#FFFFFF;stroke-width:7;stroke-miterlimit:10;}
	.st11{fill:none;stroke:#FFFFFF;stroke-width:7;stroke-miterlimit:10;}
	.st12{opacity:0.85;}
	.st13{fill:#00A14B;stroke:#FFFFFF;stroke-width:7;stroke-miterlimit:10;}
</style>
</svg>
